<svg width="24" height="24" viewBox="0 0 24 24" fill="none" xmlns="http://www.w3.org/2000/svg">
<g clip-path="url(#clip0_taipei_discovery)">
<path d="M12 2C8.13 2 5 5.13 5 9C5 14.25 12 22 12 22C12 22 19 14.25 19 9C19 5.13 15.87 2 12 2ZM12 11.5C10.62 11.5 9.5 10.38 9.5 9C9.5 7.62 10.62 6.5 12 6.5C13.38 6.5 14.5 7.62 14.5 9C14.5 10.38 13.38 11.5 12 11.5Z" fill="#279EAE"/>
<path d="M20 10V20C20 21.1 19.1 22 18 22H6C4.9 22 4 21.1 4 20V10C4 8.9 4.9 8 6 8H18C19.1 8 20 8.9 20 10ZM12 19C15.31 19 18 16.31 18 13C18 9.69 15.31 7 12 7C8.69 7 6 9.69 6 13C6 16.31 8.69 19 12 19Z" fill="#434344" opacity="0.3"/>
<circle cx="12" cy="13" r="4" fill="#279EAE"/>
<path d="M14.5 10L13.5 11L15 12.5L13.5 14L14.5 15L16.5 13L14.5 11V10Z" fill="white"/>
<path d="M9.5 10L10.5 11L9 12.5L10.5 14L9.5 15L7.5 13L9.5 11V10Z" fill="white"/>
</g>
<defs>
<clipPath id="clip0_taipei_discovery">
<rect width="24" height="24" fill="white"/>
</clipPath>
</defs>
</svg>

